inDegrees=yes
name=ik_lifting_orientations
DataType=double
version=3
OpenSimVersion=4.5-2024-01-10-34fd6af
endheader
time	pelvis_tilt	pelvis_list	pelvis_rotation	pelvis_tx	pelvis_ty	pelvis_tz	hip_flexion_r	hip_adduction_r	hip_rotation_r	knee_angle_r	knee_angle_r_beta	ankle_angle_r	subtalar_angle_r	mtp_angle_r	hip_flexion_l	hip_adduction_l	hip_rotation_l	knee_angle_l	knee_angle_l_beta	ankle_angle_l	subtalar_angle_l	mtp_angle_l	lumbar_extension	lumbar_bending	lumbar_rotation	arm_flex_r	arm_add_r	arm_rot_r	elbow_flex_r	pro_sup_r	wrist_flex_r	wrist_dev_r	arm_flex_l	arm_add_l	arm_rot_l	elbow_flex_l	pro_sup_l	wrist_flex_l	wrist_dev_l
0.02	-0.0254141027969833	-0.01596674177066681	-175.6204396694718	0	0.9400000003403366	0	14.54203345981146	-6.536773789283774	0	24.05250782003929	0.4197954548213693	-3.732436075818594	0	0	14.54203345981146	-6.536773789283774	0	24.05250782003929	0.4197954548213693	-3.732436075818594	0	0	-0.0496842375913779	-0.01866743902405105	-0.004508116830419348	-0.2758832548776383	-0.06255597727417948	-0.01045000597843323	0.6242022248828282	-44.2184982478431	0	0	0	-2.234254045866575	0	31.90493455336402	44.21828777930622	0	0
0.03	-0.002746794294391343	-0.002026690224752469	-175.62817645961	0	0.9400000003403366	0	16.42424169316089	-7.107385833253258	0	26.21256641539754	0.4574955893463748	-3.99008827530188	0	0	16.42424169316089	-7.107385833253258	0	26.21256641539754	0.4574955893463748	-3.99008827530188	0	0	0.001321781554782609	-0.004847262161369726	0.003580885761867294	-0.2541220818793155	-0.0680336263309653	-5.502550778076041e-05	0.504620155570834	-42.10900709711739	0	0	0	-2.597883287520083	0	35.01698204752768	42.10879664242832	0	0
0.04	-0.01540457464990826	-0.009032277783424606	-175.6240809169934	0	0.9400000003403366	0	17.5204569212901	-7.404385999739148	0	27.43019463576366	0.4787472108569626	-4.11750635474184	0	0	17.5204569212901	-7.404385999739148	0	27.43019463576366	0.4787472108569626	-4.11750635474184	0	0	-0.02175797036905184	-0.009494686025490509	0.0006882951687256412	-0.2992909078092547	-0.09919177599735915	-0.006214141642845144	0.6241541874782545	-40.86687401916419	0	0	0	-2.823377206890544	0	36.74513167497978	40.8666635720186	0	0
0.05	0.01388656585950175	0.004496968947243442	-175.6185722174887	0	0.9400000003403366	0	18.49455424698095	-7.662104973115966	0	28.5116357928983	0.4976219197155394	-4.226908143583803	0	0	18.49455424698095	-7.662104973115966	0	28.5116357928983	0.4976219197155394	-4.226908143583803	0	0	0.04515657627074434	0.0177395979322564	-0.0004004827380023099	-0.5234416014816697	-0.1854222242984788	-0.04995444670186345	0.9950243736647034	-39.76057831400825	0	0	0	-3.025594659202066	0	38.27706269335182	39.7603678735327	0	0
0.06	-0.0004313859911770005	-0.0009582638630961921	-175.6187723584046	0	0.9400000003403366	0	19.52790262353403	-7.919361826822851	0	29.64754089732195	0.5174472037779421	-4.333125216180422	0	0	19.52790262353403	-7.919361826822851	0	29.64754089732195	0.5174472037779421	-4.333125216180422	0	0	-0.001032660313074353	-0.001379658679381743	-0.0001765101807849811	-0.2423734097844324	-0.0511326788963689	-0.03629792945090043	0.5006062581379085	-38.58011080789539	0	0	0	-3.246187244895382	0	39.87547938474742	38.5799003743177	0	0
0.07000000000000001	0.002591445249795338	0.001052757969415185	-175.6193098329349	0	0.9400000003403366	0	20.42969597549482	-8.128953771334679	0	30.62979499393508	0.5345907718550438	-4.417015532152466	0	0	20.42969597549482	-8.128953771334679	0	30.62979499393508	0.5345907718550438	-4.417015532152466	0	0	0.00808158557388756	0.001445608660860787	0.0002274258839676723	-0.2372285890738231	0.04962285899302339	-0.02887831552548498	0.489617878024007	-37.54309430474105	0	0	0	-3.444499083121272	0	41.24826220397074	37.54288387703102	0	0
0.08	0.0008182455832491096	0.003126672578833278	-175.6231275595053	0	0.9400000003403366	0	21.22260141298145	-8.297725960874633	0	31.48490144989431	0.5495151949665921	-4.482035863266866	0	0	21.22260141298145	-8.297725960874633	0	31.48490144989431	0.5495151949665921	-4.482035863266866	0	0	-0.002785773258056897	0.001324649484715415	0.002304814366008915	-0.2261158754003731	0.03751344041914938	-0.06381241547350033	0.479718114856461	-36.62332749949534	0	0	0	-3.625518337361954	0	42.43309940532718	36.62311707678678	0	0
0.09	0.00188153148194262	-0.002070080687453357	-175.6198207026557	0	0.9400000003403366	0	22.48451511318262	-8.553136045971954	0	32.8420956785529	0.5732027028457494	-4.578305643737274	0	0	22.48451511318262	-8.553136045971954	0	32.8420956785529	0.5732027028457494	-4.578305643737274	0	0	-0.002396179545685077	-0.0006569627287946453	-0.0002814697117115186	-0.4620962347130101	-0.08382201418533101	-0.1378097503426615	1.022045184737195	-35.1522397641785	0	0	0	-3.919048045051739	0	44.3052361814128	35.15202934933235	0	0
0.1	0.0008996876510249958	-0.00518622265840642	-175.6212740671763	0	0.9400000003403366	0	23.18661428013198	-8.682644941234289	0	33.59252524560947	0.586300169595202	-4.625219869794715	0	0	23.18661428013198	-8.682644941234289	0	33.59252524560947	0.586300169595202	-4.625219869794715	0	0	-0.004675424304251673	-0.001615052914315003	0.00110204136244206	-0.2806325506747809	-0.05700768398992209	-0.1846868890340031	0.5830514163057848	-34.32616578328507	0	0	0	-4.088242072968578	0	45.33182566071736	34.32595537270362	0	0
0.11	0.005431010676417685	-0.005785152444745652	-175.6214564558151	0	0.9400000003403366	0	24.28275945352747	-8.872750847688176	0	34.76139095990592	0.6067007248233506	-4.692293633813654	0	0	24.28275945352747	-8.872750847688176	0	34.76139095990592	0.6067007248233506	-4.692293633813654	0	0	-0.008320493884344476	-0.006836613390471581	0.001296077216917149	-0.2871794251013565	-0.0818614481063607	-0.2287543966543613	0.6010966643308661	-33.02851681272821	0	0	0	-4.358190621639897	0	46.92237702323484	33.02830640871618	0	0
0.12	0.0180882066542656	-0.002946157659286213	-175.6251656014548	0	0.9400000003403366	0	24.82373485679667	-8.95854496730216	0	35.33650718092784	0.6167383964618104	-4.721453311247553	0	0	24.82373485679667	-8.95854496730216	0	35.33650718092784	0.6167383964618104	-4.721453311247553	0	0	0.0285532389406916	0.002686546635110332	0.004808496155998416	-0.5614650107811777	-0.1834943105790155	-0.19281763678932	1.040061186476872	-32.3822591206446	0	0	0	-4.495674621110433	0	47.69899053983364	32.38204871981296	0	0
0.13	0.01749321487754878	0.006098974601327139	-175.6190967282299	0	0.9400000003403366	0	24.82879923960996	-8.959394068987251	0	35.34192183320995	0.6168328999719839	-4.721749408066299	0	0	24.82879923960996	-8.959394068987251	0	35.34192183320995	0.6168328999719839	-4.721749408066299	0	0	0.02247612639000267	0.004689566325985726	0.003308717970813083	-0.3504796186975935	-0.1815655596376179	-0.01309634235502399	0.6130945780677011	-32.37623842001148	0	0	0	-4.496939398372756	0	47.70631410670867	32.37602801921	0	0
0.14	0.002949300214890099	-0.003428429462907617	-175.6417976163005	0	0.9400000003403366	0	24.83117856337722	-8.959791587027238	0	35.34447143916597	0.6168773989905448	-4.721887912803913	0	0	24.83117856337722	-8.959791587027238	0	35.34447143916597	0.6168773989905448	-4.721887912803913	0	0	0.006049252746473321	-0.006377581391716796	0.03804607553183565	-0.3586163003058309	-0.2408872819587667	0.2505464924209779	0.6226987412124726	-32.37340762444251	0	0	0	-4.49753518516436	0	47.70975328100603	32.37319722365521	0	0
